<svg xmlns="http://www.w3.org/2000/svg" width="1200" height="630" viewBox="0 0 1200 630" role="img" aria-labelledby="title desc">
  <title id="title">CoreRobin</title>
  <desc id="desc">CoreRobin helps you understand your computer and decide the next step.</desc>
  <defs>
    <linearGradient id="background" x1="0" y1="0" x2="1" y2="1"><stop stop-color="#081017"/><stop offset=".58" stop-color="#101b2a"/><stop offset="1" stop-color="#19182c"/></linearGradient>
    <radialGradient id="glow" cx=".25" cy=".45" r=".7"><stop stop-color="#4774b9" stop-opacity=".34"/><stop offset="1" stop-color="#4774b9" stop-opacity="0"/></radialGradient>
    <linearGradient id="line" x1="0" y1="0" x2="1" y2="0"><stop stop-color="#4ee0b1"/><stop offset=".55" stop-color="#5a9cff"/><stop offset="1" stop-color="#f15a43"/></linearGradient>
    <filter id="shadow" x="-30%" y="-30%" width="160%" height="160%"><feDropShadow dx="0" dy="18" stdDeviation="22" flood-color="#000" flood-opacity=".38"/></filter>
  </defs>
  <rect width="1200" height="630" fill="url(#background)"/>
  <rect width="1200" height="630" fill="url(#glow)"/>
  <g opacity=".12" stroke="#b8c8d5"><path d="M0 78h1200M0 156h1200M0 234h1200M0 312h1200M0 390h1200M0 468h1200M0 546h1200"/><path d="M102 0v630M204 0v630M306 0v630M408 0v630M510 0v630M612 0v630M714 0v630M816 0v630M918 0v630M1020 0v630M1122 0v630"/></g>
  <rect x="48" y="46" width="1104" height="538" rx="34" fill="#0a121c" fill-opacity=".66" stroke="#55718d" stroke-opacity=".35"/>
  <g transform="translate(124 152)" filter="url(#shadow)">
    <circle cx="165" cy="165" r="154" fill="#101e31" stroke="#4a80b9" stroke-opacity=".55" stroke-width="3"/>
    <circle cx="165" cy="165" r="125" fill="none" stroke="#4ee0b1" stroke-opacity=".34" stroke-width="3" stroke-dasharray="18 16"/>
    <circle cx="165" cy="165" r="96" fill="#0a131e" stroke="#5a9cff" stroke-opacity=".55" stroke-width="3"/>
    <path d="M125 214 72 256l47-15 25-30Z" fill="#263c5b"/><path d="m121 231-35 28 34-13 22-25Z" fill="#f15a43"/>
    <path d="m114 151 40-24 39 16 17 43-20 55-38 27-42-18-16-41 7-36Z" fill="#2d4d74"/>
    <path d="m119 185 42-18 34 17-13 50-30 23-31-17-16-33Z" fill="#f15a43"/>
    <path d="m114 171 43-11 22 25-23 35-38 11-14-28Z" fill="#5a9cff"/><path d="m119 204 35 14 18-30" fill="none" stroke="#dcecff" stroke-opacity=".75" stroke-width="4" stroke-linecap="round"/>
    <path d="m135 136 19-29 38 1 20 20-10 31-30 15-32-15Z" fill="#dcecff"/>
    <path d="m170 150 36-18-4 28-23 13-17-12Z" fill="#b7d3f3"/><path d="m205 132 27 12-29 9Z" fill="#f15a43"/>
    <ellipse cx="183" cy="128" rx="5" ry="6" fill="#0b1621"/><circle cx="185" cy="126" r="1.5" fill="#fff"/>
    <path d="M86 188h166" stroke="url(#line)" stroke-width="4" stroke-linecap="round" opacity=".85"/>
  </g>
  <g transform="translate(500 168)">
    <text x="0" y="0" fill="#decdbb" font-family="-apple-system,BlinkMacSystemFont,Segoe UI,sans-serif" font-size="32" font-weight="800" letter-spacing="8">COREROBIN</text>
    <rect x="0" y="35" width="105" height="4" rx="2" fill="url(#line)"/>
    <text x="0" y="138" fill="#f4f8fb" font-family="-apple-system,BlinkMacSystemFont,Segoe UI,Noto Sans SC,sans-serif" font-size="66" font-weight="800" letter-spacing="-3">看懂电脑状态</text>
    <text x="0" y="208" fill="#9bb0c0" font-family="-apple-system,BlinkMacSystemFont,Segoe UI,Noto Sans SC,sans-serif" font-size="30">从你的感受开始，给出稳定结论和下一步。</text>
    <g transform="translate(0 270)"><rect width="470" height="68" rx="17" fill="#122038" stroke="#385c82"/><circle cx="33" cy="34" r="8" fill="#4ee0b1"/><text x="56" y="42" fill="#d8e7f3" font-family="-apple-system,BlinkMacSystemFont,Segoe UI,Noto Sans SC,sans-serif" font-size="24" font-weight="650">本机运行 · 你的确认优先</text></g>
  </g>
</svg>
